<svg width="581" height="591" viewBox="0 0 581 591" fill="none" xmlns="http://www.w3.org/2000/svg">
<rect y="83" width="493" height="508" rx="50" fill="white"/>
<path fill-rule="evenodd" clip-rule="evenodd" d="M134 251V340C134.559 343.077 135.514 344.282 139 345H197.052V392H140C136.563 392.141 135.273 393.299 134 397V485C134.852 488.759 136.187 489.764 139 491H208C211.416 490.213 212.177 488.853 213 486V408H290C293.82 407.462 294.794 406.042 296 403V335C295.501 331.728 294.507 330.349 291 329H213V262H353C356.639 261.423 357.81 260.18 359 257V189C357.891 185.404 356.417 184.069 351.945 183H204C199.591 183.425 197.777 184.931 196 190V246H140C136.869 246.672 135.606 247.806 134 251ZM213 392V346H279V392H213ZM151 408V475H196V408H151ZM151 329V263H196V329H151ZM213 200V246L342 245.914V200H213Z" fill="#0A79FF" stroke="black"/>
<path d="M436.582 207.133L558.039 85.6759M436.582 207.133C436.58 207.135 436.578 207.137 436.576 207.139L436.582 207.133Z" fill="#7ADB86" stroke="white" stroke-width="10"/>
</svg>
