<svg width="60" height="60" viewBox="0 0 562 533" fill="none" xmlns="http://www.w3.org/2000/svg">
<path d="M0 75C0 47.3858 22.3858 25 50 25H443C470.614 25 493 47.3858 493 75V483C493 510.614 470.614 533 443 533H50C22.3858 533 0 510.614 0 483V75Z" fill="white"/>
<path fill-rule="evenodd" clip-rule="evenodd" d="M134 193V282C134.559 285.077 135.514 286.282 139 287H197.052V334H140C136.563 334.141 135.273 335.299 134 339V427C134.852 430.759 136.187 431.764 139 433H208C211.416 432.213 212.177 430.853 213 428V350H290C293.82 349.462 294.794 348.042 296 345V277C295.501 273.728 294.507 272.349 291 271H213V204H353C356.639 203.423 357.81 202.18 359 199V131C357.891 127.404 356.417 126.069 351.945 125H204C199.591 125.425 197.777 126.931 196 132V188H140C136.869 188.672 135.606 189.806 134 193ZM213 334V288H279V334H213ZM151 350V417H196V350H151ZM151 271V205H196V271H151ZM213 142V188L342 187.914V142H213Z" fill="#0A79FF"/>
<path d="M558.041 20.6035L433.041 145.604C431.952 146.696 430.659 147.563 429.234 148.154C427.81 148.746 426.283 149.05 424.74 149.05C423.198 149.05 421.671 148.746 420.246 148.154C418.822 147.563 417.528 146.696 416.439 145.604L361.752 90.916C360.662 89.8259 359.797 88.5318 359.207 87.1076C358.617 85.6833 358.314 84.1568 358.314 82.6152C358.314 81.0736 358.617 79.5471 359.207 78.1229C359.797 76.6986 360.662 75.4045 361.752 74.3145C362.842 73.2244 364.136 72.3597 365.56 71.7697C366.985 71.1798 368.511 70.8762 370.053 70.8762C371.594 70.8762 373.121 71.1798 374.545 71.7697C375.969 72.3597 377.263 73.2244 378.354 74.3145L424.75 120.711L541.459 4.02148C543.66 1.81998 546.646 0.583191 549.76 0.583191C552.873 0.583191 555.859 1.81998 558.061 4.02148C560.262 6.22299 561.499 9.20887 561.499 12.3223C561.499 15.4357 560.262 18.4215 558.061 20.6231L558.041 20.6035Z" fill="#7ADB86"/>
</svg>
